<svg xmlns="http://www.w3.org/2000/svg" width="32" height="32" viewBox="0 0 32 32">
  <rect width="32" height="32" rx="6" fill="#0e0e0e"/>
  <g transform="translate(2, 6) scale(0.127)">
    <path d="M20 55 L45 55 L55 30 L90 20 L155 20 L175 30 L195 55 L210 55 L210 65 L195 65 L195 62 L45 62 L45 65 L20 65 Z" fill="#f5ce53" stroke="#e6c047" stroke-width="1.5"/>
    <path d="M70 30 L85 12 L145 12 L160 30" fill="#f5ce53" stroke="#e6c047" stroke-width="1.5"/>
    <rect x="88" y="15" width="22" height="14" fill="#0e0e0e"/>
    <rect x="113" y="15" width="30" height="14" fill="#0e0e0e"/>
    <rect x="195" y="45" width="12" height="8" fill="#fff" opacity="0.9"/>
    <rect x="22" y="47" width="8" height="6" fill="#ff716c"/>
    <circle cx="175" cy="65" r="14" fill="#262626" stroke="#3a3a3a" stroke-width="2"/>
    <circle cx="175" cy="65" r="6" fill="#484848"/>
    <circle cx="60" cy="65" r="14" fill="#262626" stroke="#3a3a3a" stroke-width="2"/>
    <circle cx="60" cy="65" r="6" fill="#484848"/>
  </g>
</svg>
